<?xml version="1.0"?>
<svg width="1em" height="1em" xmlns="http://www.w3.org/2000/svg" xmlns:svg="http://www.w3.org/2000/svg">

 <g class="layer">
  <title>Layer 1</title>
  <path clip-rule="evenodd" d="m4.26,-5c-0.81,0 -1.46,0.66 -1.46,1.47c0,0.81 0.65,1.47 1.46,1.47c0.81,0 1.46,-0.66 1.46,-1.47c0,-0.81 -0.65,-1.47 -1.46,-1.47zm-2.44,1.96c0.02,0 0.03,0 0.05,0c0.22,1.12 1.21,1.96 2.39,1.96c1.18,0 2.16,-0.84 2.39,-1.96c0.02,0 0.03,0 0.05,0l5.36,0c0.27,0 0.49,-0.22 0.49,-0.49c0,-0.27 -0.21,-0.49 -0.49,-0.49l-5.36,0c-0.02,0 -0.03,0 -0.05,0c-0.22,-1.12 -1.21,-1.96 -2.39,-1.96c-1.18,0 -2.16,0.84 -2.39,1.96c-0.02,0 -0.03,0 -0.05,0l-1.46,0c-0.27,0 -0.49,0.22 -0.49,0.49c0,0.27 0.21,0.49 0.49,0.49l1.46,0zm8.72,5.88c-0.22,1.12 -1.21,1.96 -2.39,1.96c-1.18,0 -2.16,-0.84 -2.39,-1.96c-0.02,0 -0.03,0 -0.05,0l-5.36,0c-0.27,0 -0.49,-0.22 -0.49,-0.49c0,-0.27 0.21,-0.49 0.49,-0.49l5.36,0c0.02,0 0.03,0 0.05,0c0.22,-1.12 1.21,-1.96 2.39,-1.96c1.18,0 2.16,0.84 2.39,1.96c0.02,0 0.03,0 0.05,0l1.46,0c0.27,0 0.49,0.22 0.49,0.49c0,0.27 -0.21,0.49 -0.49,0.49l-1.46,0c-0.02,0 -0.03,0 -0.05,0zm-3.85,-0.49c0,-0.81 0.65,-1.47 1.46,-1.47c0.81,0 1.46,0.66 1.46,1.47c0,0.81 -0.65,1.47 -1.46,1.47c-0.81,0 -1.46,-0.66 -1.46,-1.47z" fill="currentColor" fill-rule="evenodd" id="svg_1"/>
  <path clip-rule="evenodd" d="m4.57,6.38c-0.81,0 -1.46,0.66 -1.46,1.47c0,0.81 0.65,1.47 1.46,1.47c0.81,0 1.46,-0.66 1.46,-1.47c0,-0.81 -0.65,-1.47 -1.46,-1.47zm-2.44,1.96c0.02,0 0.03,0 0.05,0c0.22,1.12 1.21,1.96 2.39,1.96c1.18,0 2.16,-0.84 2.39,-1.96c0.02,0 0.03,0 0.05,0l5.36,0c0.27,0 0.49,-0.22 0.49,-0.49c0,-0.27 -0.21,-0.49 -0.49,-0.49l-5.36,0c-0.02,0 -0.03,0 -0.05,0c-0.22,-1.12 -1.21,-1.96 -2.39,-1.96c-1.18,0 -2.16,0.84 -2.39,1.96c-0.02,0 -0.03,0 -0.05,0l-1.46,0c-0.27,0 -0.49,0.22 -0.49,0.49c0,0.27 0.21,0.49 0.49,0.49l1.46,0zm8.72,5.88c-0.22,1.12 -1.21,1.96 -2.39,1.96c-1.18,0 -2.16,-0.84 -2.39,-1.96c-0.02,0 -0.03,0 -0.05,0l-5.36,0c-0.27,0 -0.49,-0.22 -0.49,-0.49c0,-0.27 0.21,-0.49 0.49,-0.49l5.36,0c0.02,0 0.03,0 0.05,0c0.22,-1.12 1.21,-1.96 2.39,-1.96c1.18,0 2.16,0.84 2.39,1.96c0.02,0 0.03,0 0.05,0l1.46,0c0.27,0 0.49,0.22 0.49,0.49c0,0.27 -0.21,0.49 -0.49,0.49l-1.46,0c-0.02,0 -0.03,0 -0.05,0zm-3.85,-0.49c0,-0.81 0.65,-1.47 1.46,-1.47c0.81,0 1.46,0.66 1.46,1.47c0,0.81 -0.65,1.47 -1.46,1.47c-0.81,0 -1.46,-0.66 -1.46,-1.47z" fill="currentColor" fill-rule="evenodd" id="svg_2"/>
 </g>
</svg>
